<svg width="408" height="319" viewBox="0 0 408 319" fill="none" xmlns="http://www.w3.org/2000/svg">
<rect x="129" y="49" width="208.247" height="81.9595" fill="#3FFFF3"/>
<path d="M334.015 66.008C342.228 66.1351 349.096 69.2542 354.499 75.4924C354.673 75.6812 354.806 75.9032 354.892 76.1449C354.977 76.3866 355.013 76.6431 354.996 76.8989C354.98 77.1547 354.912 77.4046 354.796 77.6334C354.68 77.8622 354.52 78.0652 354.323 78.2302C354.133 78.3925 353.912 78.515 353.673 78.5904C353.435 78.6658 353.183 78.6926 352.934 78.6693C352.685 78.646 352.443 78.5729 352.222 78.4545C352.002 78.3361 351.807 78.1747 351.65 77.9799C349.722 75.7016 347.377 73.8115 344.741 72.4105C340.69 70.258 336.085 69.3726 331.524 69.8691C326.963 70.3657 322.656 72.2213 319.163 75.1952C318.169 76.0341 317.285 77.0099 316.39 77.9584C315.608 78.7817 314.471 78.9127 313.652 78.2067C312.833 77.5008 312.782 76.3216 313.521 75.469C318.046 70.2216 323.742 67.122 330.609 66.1703C331.146 66.096 331.688 66.0393 332.232 66.0139C332.824 65.9865 333.421 66.008 334.015 66.008Z" fill="#04146C"/>
<path d="M334.693 73.6294C339.889 73.7643 344.776 75.9761 348.618 80.4269C349.377 81.303 349.289 82.4333 348.446 83.1646C347.646 83.853 346.491 83.7611 345.746 82.9046C343.739 80.5814 341.308 78.8781 338.344 78.0783C332.303 76.4473 327.08 77.9336 322.699 82.4059C322.537 82.5721 322.387 82.7501 322.232 82.9241C321.902 83.3048 321.435 83.5389 320.932 83.5748C320.43 83.6107 319.934 83.4456 319.553 83.1158C319.172 82.7859 318.938 82.3183 318.902 81.8159C318.866 81.3135 319.031 80.8173 319.361 80.4367C321.051 78.4313 323.137 76.7962 325.488 75.6338C328.185 74.2904 331.034 73.6431 334.693 73.6294Z" fill="#04146C"/>
<path d="M343.244 86.6337C343.245 87.0181 343.129 87.3937 342.912 87.711C342.696 88.0284 342.388 88.2725 342.029 88.4113C341.665 88.5549 341.265 88.5808 340.885 88.4854C340.505 88.39 340.165 88.1781 339.912 87.8794C339.12 86.9518 338.127 86.2163 337.009 85.7283C333.881 84.4064 330.449 85.2277 328.127 87.8481C327.578 88.47 326.891 88.6949 326.098 88.4544C325.795 88.3622 325.52 88.1959 325.298 87.9705C325.076 87.745 324.913 87.4677 324.826 87.1636C324.738 86.8595 324.728 86.5383 324.796 86.2292C324.864 85.9202 325.008 85.633 325.216 85.3939C329.189 80.6028 336.499 79.9184 341.28 83.9194C341.827 84.3746 342.33 84.8793 342.784 85.4272C343.048 85.7479 343.162 86.1918 343.344 86.5809L343.244 86.6337Z" fill="#04146C"/>
<path d="M334.008 96.613C333.252 96.6153 332.512 96.3928 331.883 95.9739C331.253 95.5549 330.762 94.9584 330.472 94.2599C330.183 93.5615 330.107 92.7927 330.255 92.0512C330.403 91.3096 330.768 90.6288 331.303 90.095C331.839 89.5613 332.521 89.1988 333.263 89.0535C334.005 88.9082 334.774 88.9867 335.471 89.2791C336.169 89.5714 336.764 90.0643 337.18 90.6953C337.597 91.3264 337.817 92.067 337.812 92.8231C337.81 93.83 337.408 94.7948 336.694 95.5055C335.981 96.2162 335.015 96.6145 334.008 96.613Z" fill="#04146C"/>
<path d="M206.28 207.802V141.071V72.3828" stroke="#04146C" stroke-width="0.547733"/>
<path d="M44.0001 139.113H161.174V207.801" stroke="#04146C" stroke-width="0.547733"/>
<path d="M369.005 139.113H251.831V207.801" stroke="#04146C" stroke-width="0.547733"/>
<mask id="path-9-inside-1_13868:116969" fill="white">
<path fill-rule="evenodd" clip-rule="evenodd" d="M63.9852 31C71.0593 31 77.0084 36.3766 78.7317 43.6686C81.5552 45.0222 83.921 47.3379 85.498 50.246C86.4409 49.8853 87.4524 49.6895 88.5049 49.6895C93.6243 49.6895 97.7744 54.322 97.7744 60.0366C97.7744 60.0695 97.7743 60.1023 97.774 60.1351V60.1261H29.0003C29.0001 60.0962 29 60.0663 29 60.0364C29 54.6942 32.6269 50.2975 37.2821 49.7473C38.9697 42.7943 44.6624 37.6797 51.4253 37.6797C51.5731 37.6797 51.7204 37.6821 51.8671 37.687C54.654 33.6219 59.0453 31 63.9852 31Z"/>
</mask>
<path fill-rule="evenodd" clip-rule="evenodd" d="M63.9852 31C71.0593 31 77.0084 36.3766 78.7317 43.6686C81.5552 45.0222 83.921 47.3379 85.498 50.246C86.4409 49.8853 87.4524 49.6895 88.5049 49.6895C93.6243 49.6895 97.7744 54.322 97.7744 60.0366C97.7744 60.0695 97.7743 60.1023 97.774 60.1351V60.1261H29.0003C29.0001 60.0962 29 60.0663 29 60.0364C29 54.6942 32.6269 50.2975 37.2821 49.7473C38.9697 42.7943 44.6624 37.6797 51.4253 37.6797C51.5731 37.6797 51.7204 37.6821 51.8671 37.687C54.654 33.6219 59.0453 31 63.9852 31Z" fill="#04146C"/>
<path d="M78.7317 43.6686L78.2659 43.7787L78.3185 44.0013L78.5248 44.1002L78.7317 43.6686ZM85.498 50.246L85.0773 50.4742L85.2772 50.8429L85.669 50.693L85.498 50.246ZM97.774 60.1351H97.2954L98.2526 60.1391L97.774 60.1351ZM97.774 60.1261H98.2527V59.6475H97.774V60.1261ZM29.0003 60.1261L28.5217 60.1298L28.5253 60.6048H29.0003V60.1261ZM37.2821 49.7473L37.3382 50.2226L37.6687 50.1835L37.7472 49.8602L37.2821 49.7473ZM51.8671 37.687L51.8513 38.1654L52.1135 38.174L52.2619 37.9576L51.8671 37.687ZM79.1975 43.5585C77.4323 36.0895 71.3189 30.5214 63.9852 30.5214V31.4786C70.7997 31.4786 76.5844 36.6637 78.2659 43.7787L79.1975 43.5585ZM85.9187 50.0178C84.2975 47.0281 81.86 44.6375 78.9386 43.237L78.5248 44.1002C81.2504 45.4069 83.5445 47.6477 85.0773 50.4742L85.9187 50.0178ZM88.5049 49.2108C87.3924 49.2108 86.323 49.4179 85.327 49.799L85.669 50.693C86.5588 50.3526 87.5124 50.1681 88.5049 50.1681V49.2108ZM98.2531 60.0366C98.2531 54.1085 93.9368 49.2108 88.5049 49.2108V50.1681C93.3118 50.1681 97.2958 54.5355 97.2958 60.0366H98.2531ZM98.2526 60.1391C98.2529 60.105 98.2531 60.0708 98.2531 60.0366H97.2958C97.2958 60.0681 97.2957 60.0996 97.2954 60.1311L98.2526 60.1391ZM97.2954 60.1261V60.1351H98.2527V60.1261H97.2954ZM29.0003 60.6048H97.774V59.6475H29.0003V60.6048ZM28.5214 60.0364C28.5214 60.0675 28.5215 60.0987 28.5217 60.1298L29.479 60.1225C29.4787 60.0938 29.4786 60.0651 29.4786 60.0364H28.5214ZM37.2259 49.272C32.2925 49.8551 28.5214 54.4911 28.5214 60.0364H29.4786C29.4786 54.8972 32.9614 50.74 37.3382 50.2226L37.2259 49.272ZM51.4253 37.2011C44.4042 37.2011 38.5473 42.5053 36.8169 49.6344L37.7472 49.8602C39.3921 43.0832 44.9206 38.1583 51.4253 38.1583V37.2011ZM51.8829 37.2086C51.7309 37.2036 51.5784 37.2011 51.4253 37.2011V38.1583C51.5678 38.1583 51.7098 38.1607 51.8513 38.1654L51.8829 37.2086ZM63.9852 30.5214C58.8675 30.5214 54.3365 33.2385 51.4724 37.4163L52.2619 37.9576C54.9714 34.0053 59.2231 31.4786 63.9852 31.4786V30.5214Z" fill="#04146C" mask="url(#path-9-inside-1_13868:116969)"/>
<path d="M4.14009 87.2576H57.4909C59.6351 87.2576 61.3733 88.9959 61.3733 91.1401V187.502C61.3733 189.646 59.6351 191.384 57.4909 191.384H4.14009C1.99587 191.384 0.257629 189.646 0.257629 187.502V91.1401C0.257629 88.9959 1.99587 87.2576 4.14009 87.2576Z" fill="#04146C" stroke="#04146C" stroke-width="0.515257"/>
<path d="M41.7787 94.3431C41.7047 94.7285 41.5156 95.0736 41.243 95.3207C40.9703 95.5678 40.6307 95.7019 40.2809 95.7006H21.5832C21.2339 95.6999 20.8952 95.565 20.6229 95.3183C20.3507 95.0715 20.1611 94.7276 20.0855 94.3431C20.0095 93.9597 19.8196 93.6171 19.5471 93.3721C19.2747 93.1272 18.9361 92.9947 18.5877 92.9966H5.3133C4.90647 92.9995 4.51703 93.183 4.22936 93.5073C3.94168 93.8316 3.77893 94.2707 3.77637 94.7294V185.229C3.77637 185.689 3.93829 186.13 4.22652 186.455C4.51475 186.779 4.90568 186.962 5.3133 186.962H56.5411C56.9487 186.962 57.3396 186.779 57.6278 186.455C57.9161 186.13 58.078 185.689 58.078 185.229V94.7294C58.078 94.2698 57.9161 93.8291 57.6278 93.5041C57.3396 93.1792 56.9487 92.9966 56.5411 92.9966H43.2765C42.9285 92.9967 42.5908 93.13 42.3188 93.3746C42.0467 93.6192 41.8563 93.9606 41.7787 94.3431Z" fill="white" stroke="#04146C" stroke-width="0.515257" stroke-linecap="round" stroke-linejoin="round"/>
<path d="M32.0072 91.6332C32.0051 91.8561 31.9372 92.0734 31.8119 92.2577C31.6865 92.442 31.5095 92.585 31.303 92.6689C31.0965 92.7528 30.8698 92.7736 30.6515 92.7289C30.4331 92.6842 30.2329 92.5758 30.0761 92.4175C29.9192 92.2592 29.8127 92.058 29.77 91.8392C29.7272 91.6205 29.7502 91.394 29.836 91.1883C29.9217 90.9826 30.0664 90.8068 30.2519 90.6832C30.4373 90.5596 30.6552 90.4937 30.8781 90.4937C31.1785 90.4964 31.4657 90.6177 31.6771 90.8311C31.8886 91.0445 32.0072 91.3328 32.0072 91.6332Z" fill="white"/>
<path d="M32.4364 153.381C28.8833 153.725 25.328 152.748 22.4502 150.636C19.5725 148.523 17.5741 145.425 16.8371 141.932C16.1001 138.439 16.6763 134.797 18.4554 131.702C20.2346 128.608 23.0919 126.277 26.4812 125.156" fill="white"/>
<path d="M32.4364 153.381C28.8833 153.725 25.328 152.748 22.4502 150.636C19.5725 148.523 17.5741 145.425 16.8371 141.932C16.1001 138.439 16.6763 134.797 18.4554 131.702C20.2346 128.608 23.0919 126.277 26.4812 125.156" stroke="#04146C" stroke-linecap="round" stroke-linejoin="round"/>
<path d="M29.6133 124.477C33.1664 124.133 36.7217 125.111 39.5995 127.223C42.4773 129.335 44.4757 132.434 45.2126 135.927C45.9496 139.42 45.3734 143.061 43.5943 146.156C41.8151 149.251 38.9578 151.582 35.5686 152.702" fill="white"/>
<path d="M29.6133 124.477C33.1664 124.133 36.7217 125.111 39.5995 127.223C42.4773 129.335 44.4757 132.434 45.2126 135.927C45.9496 139.42 45.3734 143.061 43.5943 146.156C41.8151 149.251 38.9578 151.582 35.5686 152.702" stroke="#04146C" stroke-linecap="round" stroke-linejoin="round"/>
<path d="M31.0245 126.122L29.3408 124.431L31.0245 122.747" fill="white"/>
<path d="M31.0245 126.122L29.3408 124.431L31.0245 122.747" stroke="#04146C" stroke-linecap="round" stroke-linejoin="round"/>
<path d="M31.0244 151.771L32.7081 153.454L31.0244 155.138" fill="white"/>
<path d="M31.0244 151.771L32.7081 153.454L31.0244 155.138" stroke="#04146C" stroke-linecap="round" stroke-linejoin="round"/>
<path d="M124.229 1H288.675C290.138 1 291.542 1.5815 292.577 2.61658C293.612 3.65165 294.194 5.05551 294.194 6.51933V114.901H118.715V6.51933C118.715 5.05643 119.296 3.65337 120.33 2.61844C121.363 1.58352 122.766 1.0014 124.229 1Z" fill="#04146C" stroke="#04146C" stroke-width="0.476871" stroke-miterlimit="10"/>
<path d="M126.264 100.786V10.1413H287.03V100.786H126.264Z" fill="white" stroke="#04146C" stroke-width="0.476871"/>
<path d="M286.958 9.91113H125.574V105.949H286.958V9.91113Z" fill="white" stroke="#04146C" stroke-width="0.476871" stroke-miterlimit="10"/>
<path d="M109.863 114.844C107.922 114.842 107.233 116.732 108.964 117.611C109.943 118.108 111.132 118.625 112.559 119.119C112.793 119.2 113.041 119.24 113.288 119.24H301.46C301.649 119.24 301.835 119.217 302.015 119.163C302.54 119.005 303.756 118.596 305.034 117.854C306.607 116.94 305.737 115.053 303.918 115.051L109.863 114.844Z" fill="white" stroke="#04146C" stroke-width="0.476871" stroke-miterlimit="10"/>
<path d="M206.613 6.97656C207.464 6.97656 208.154 6.28673 208.154 5.43579C208.154 4.58485 207.464 3.89502 206.613 3.89502C205.762 3.89502 205.072 4.58485 205.072 5.43579C205.072 6.28673 205.762 6.97656 206.613 6.97656Z" fill="#04146C"/>
<path d="M290.899 33.0565C290.782 33.0565 290.67 33.0105 290.587 32.9285C290.504 32.8465 290.457 32.7351 290.456 32.6185V19.8544C290.457 19.7372 290.504 19.6253 290.587 19.5425C290.67 19.4596 290.782 19.4125 290.899 19.4111C291.015 19.4125 291.127 19.4598 291.209 19.5428C291.291 19.6258 291.337 19.7377 291.337 19.8544V32.6185C291.337 32.7347 291.291 32.846 291.208 32.9282C291.126 33.0103 291.015 33.0565 290.899 33.0565Z" fill="#04146C" stroke="#04146C" stroke-width="0.329846" stroke-miterlimit="10"/>
<path d="M209.142 84.0922C202.425 84.7426 195.704 82.8947 190.264 78.9019C184.824 74.9091 181.047 69.0514 179.654 62.4487C178.26 55.846 179.35 48.9614 182.713 43.1112C186.076 37.261 191.477 32.8554 197.884 30.7368" fill="white"/>
<path d="M209.142 84.0922C202.425 84.7426 195.704 82.8947 190.264 78.9019C184.824 74.9091 181.047 69.0514 179.654 62.4487C178.26 55.846 179.35 48.9614 182.713 43.1112C186.076 37.261 191.477 32.8554 197.884 30.7368" stroke="#04146C" stroke-width="2" stroke-linecap="round" stroke-linejoin="round"/>
<path d="M203.806 29.4437C210.522 28.7933 217.243 30.6412 222.683 34.634C228.123 38.6268 231.901 44.4845 233.294 51.0872C234.687 57.6899 233.598 64.5745 230.235 70.4247C226.871 76.275 221.47 80.6805 215.063 82.7991" fill="white"/>
<path d="M203.806 29.4437C210.522 28.7933 217.243 30.6412 222.683 34.634C228.123 38.6268 231.901 44.4845 233.294 51.0872C234.687 57.6899 233.598 64.5745 230.235 70.4247C226.871 76.275 221.47 80.6805 215.063 82.7991" stroke="#04146C" stroke-width="2" stroke-linecap="round" stroke-linejoin="round"/>
<path d="M206.474 32.5566L203.291 29.36L206.474 26.1772" fill="white"/>
<path d="M206.474 32.5566L203.291 29.36L206.474 26.1772" stroke="#04146C" stroke-width="2" stroke-linecap="round" stroke-linejoin="round"/>
<path d="M206.474 81.0469L209.656 84.2296L206.474 87.4123" fill="white"/>
<path d="M206.474 81.0469L209.656 84.2296L206.474 87.4123" stroke="#04146C" stroke-width="2" stroke-linecap="round" stroke-linejoin="round"/>
<path d="M403.403 135.699H406.003C406.202 135.699 406.398 135.738 406.581 135.815C406.765 135.892 406.931 136.005 407.072 136.148C407.212 136.29 407.323 136.46 407.399 136.646C407.475 136.832 407.514 137.031 407.514 137.233V139.81C407.514 140.012 407.475 140.211 407.399 140.398C407.323 140.584 407.212 140.753 407.072 140.895C406.931 141.038 406.765 141.151 406.581 141.228C406.398 141.305 406.202 141.345 406.003 141.345H403.403V135.692V135.699Z" fill="#04146C" stroke="#04146C" stroke-width="0.550292" stroke-linecap="round" stroke-linejoin="round"/>
<path d="M367.843 110.275H398.368C402.727 110.275 406.21 113.446 406.21 117.298V161.794C406.21 165.646 402.727 168.817 398.368 168.817H367.843C363.483 168.817 360.001 165.646 360.001 161.794V117.298C360.001 113.446 363.483 110.275 367.843 110.275Z" fill="#04146C" stroke="#04146C" stroke-width="0.550292"/>
<path d="M369.946 113.361H396.781C400.594 113.361 403.642 116.186 403.642 119.622V159.475C403.642 162.911 400.594 165.736 396.781 165.736H369.946C366.134 165.736 363.085 162.911 363.085 159.475V119.622C363.085 116.186 366.134 113.361 369.946 113.361Z" fill="white" stroke="#04146C" stroke-width="0.550292"/>
<path d="M384.284 151.444C381.325 151.73 378.364 150.916 375.967 149.157C373.571 147.398 371.907 144.818 371.293 141.909C370.679 139 371.159 135.967 372.641 133.39C374.122 130.813 376.502 128.872 379.324 127.939" fill="white"/>
<path d="M384.284 151.444C381.325 151.73 378.364 150.916 375.967 149.157C373.571 147.398 371.907 144.818 371.293 141.909C370.679 139 371.159 135.967 372.641 133.39C374.122 130.813 376.502 128.872 379.324 127.939" stroke="#04146C" stroke-linecap="round" stroke-linejoin="round"/>
<path d="M381.932 127.368C384.891 127.082 387.851 127.896 390.248 129.655C392.644 131.414 394.308 133.994 394.922 136.903C395.536 139.812 395.056 142.844 393.574 145.422C392.093 147.999 389.713 149.94 386.891 150.873" fill="white"/>
<path d="M381.932 127.368C384.891 127.082 387.851 127.896 390.248 129.655C392.644 131.414 394.308 133.994 394.922 136.903C395.536 139.812 395.056 142.844 393.574 145.422C392.093 147.999 389.713 149.94 386.891 150.873" stroke="#04146C" stroke-linecap="round" stroke-linejoin="round"/>
<path d="M383.108 128.74L381.706 127.332L383.108 125.93" fill="white"/>
<path d="M383.108 128.74L381.706 127.332L383.108 125.93" stroke="#04146C" stroke-linecap="round" stroke-linejoin="round"/>
<path d="M383.105 150.103L384.508 151.505L383.105 152.907" fill="white"/>
<path d="M383.105 150.103L384.508 151.505L383.105 152.907" stroke="#04146C" stroke-linecap="round" stroke-linejoin="round"/>
<path d="M314 197.623L330.127 195.417V210.949H314V197.623ZM332.07 195.111L353.437 192V210.818H332.07V195.111ZM314 212.592H330.127V228.168L314 225.917V212.592ZM332.07 212.799H353.437V231.437L332.07 228.421" fill="#04146C"/>
<path d="M270.268 164.713H141.004V318H270.268V164.713Z" fill="#04146C" stroke="#04146C" stroke-width="1.02201" stroke-miterlimit="10"/>
<path d="M282.053 179.486H287.959V196.618H282.053V179.486Z" fill="white" stroke="#04146C" stroke-width="1.02201" stroke-miterlimit="10"/>
<path d="M132.216 169.638H283.306C284.516 169.638 285.497 170.619 285.497 171.829V204.382C285.497 205.592 284.516 206.573 283.306 206.573H132.216C131.006 206.573 130.026 205.592 130.026 204.382V171.829C130.026 170.619 131.006 169.638 132.216 169.638Z" fill="white" stroke="#04146C" stroke-width="1.02201" stroke-miterlimit="10"/>
<path d="M276.88 183.795C276.88 185.495 275.502 186.873 273.802 186.873C272.102 186.873 270.724 185.495 270.724 183.795C270.724 182.095 272.102 180.717 273.802 180.717C275.502 180.717 276.88 182.095 276.88 183.795Z" fill="white" stroke="#04146C" stroke-width="1.02201" stroke-miterlimit="10"/>
<path d="M276.88 193.643C276.88 195.342 275.502 196.72 273.802 196.72C272.102 196.72 270.724 195.342 270.724 193.643C270.724 191.943 272.102 190.565 273.802 190.565C275.502 190.565 276.88 191.943 276.88 193.643Z" fill="white" stroke="#04146C" stroke-width="1.02201" stroke-miterlimit="10"/>
<path d="M265.8 183.794C265.8 185.494 264.422 186.872 262.722 186.872C261.022 186.872 259.644 185.494 259.644 183.794C259.644 182.094 261.022 180.716 262.722 180.716C264.422 180.716 265.8 182.094 265.8 183.794Z" fill="white" stroke="#04146C" stroke-width="1.02201" stroke-miterlimit="10"/>
<path d="M265.8 193.643C265.8 195.342 264.422 196.72 262.722 196.72C261.022 196.72 259.644 195.342 259.644 193.643C259.644 191.943 261.022 190.565 262.722 190.565C264.422 190.565 265.8 191.943 265.8 193.643Z" fill="white" stroke="#04146C" stroke-width="1.02201" stroke-miterlimit="10"/>
<path d="M254.721 183.794C254.721 185.494 253.343 186.872 251.643 186.872C249.943 186.872 248.565 185.494 248.565 183.794C248.565 182.094 249.943 180.716 251.643 180.716C253.343 180.716 254.721 182.094 254.721 183.794Z" fill="white" stroke="#04146C" stroke-width="1.02201" stroke-miterlimit="10"/>
<path d="M254.721 193.643C254.721 195.342 253.343 196.72 251.643 196.72C249.943 196.72 248.565 195.342 248.565 193.643C248.565 191.943 249.943 190.565 251.643 190.565C253.343 190.565 254.721 191.943 254.721 193.643Z" fill="white" stroke="#04146C" stroke-width="1.02201" stroke-miterlimit="10"/>
<path d="M243.641 183.794C243.641 185.494 242.263 186.872 240.563 186.872C238.863 186.872 237.485 185.494 237.485 183.794C237.485 182.094 238.863 180.716 240.563 180.716C242.263 180.716 243.641 182.094 243.641 183.794Z" fill="white" stroke="#04146C" stroke-width="1.02201" stroke-miterlimit="10"/>
<path d="M243.641 193.643C243.641 195.342 242.263 196.72 240.563 196.72C238.863 196.72 237.485 195.342 237.485 193.643C237.485 191.943 238.863 190.565 240.563 190.565C242.263 190.565 243.641 191.943 243.641 193.643Z" fill="white" stroke="#04146C" stroke-width="1.02201" stroke-miterlimit="10"/>
<path d="M232.561 183.794C232.561 185.494 231.183 186.872 229.483 186.872C227.783 186.872 226.405 185.494 226.405 183.794C226.405 182.094 227.783 180.716 229.483 180.716C231.183 180.716 232.561 182.094 232.561 183.794Z" fill="white" stroke="#04146C" stroke-width="1.02201" stroke-miterlimit="10"/>
<path d="M232.561 193.643C232.561 195.342 231.183 196.72 229.483 196.72C227.783 196.72 226.405 195.342 226.405 193.643C226.405 191.943 227.783 190.565 229.483 190.565C231.183 190.565 232.561 191.943 232.561 193.643Z" fill="white" stroke="#04146C" stroke-width="1.02201" stroke-miterlimit="10"/>
<path d="M146.384 179.486H211.632V197.953H146.384V179.486Z" fill="#04146C" stroke="#04146C" stroke-width="1.02201" stroke-miterlimit="10"/>
<path d="M125.001 193.133V183.926C125.001 181.474 126.988 179.486 129.44 179.486C131.891 179.486 133.879 181.474 133.879 183.926V193.133C133.879 195.585 131.891 197.572 129.44 197.572C126.988 197.572 125.001 195.585 125.001 193.133Z" fill="white" stroke="#04146C" stroke-width="1.02201" stroke-miterlimit="10"/>
<path d="M282.053 229.959H287.959V247.091H282.053V229.959Z" fill="white" stroke="#04146C" stroke-width="1.02201" stroke-miterlimit="10"/>
<path d="M132.216 220.111H283.306C284.516 220.111 285.497 221.092 285.497 222.302V254.856C285.497 256.066 284.516 257.047 283.306 257.047H132.216C131.006 257.047 130.026 256.066 130.026 254.856V222.302C130.026 221.092 131.006 220.111 132.216 220.111Z" fill="white" stroke="#04146C" stroke-width="1.02201" stroke-miterlimit="10"/>
<path d="M272.724 231.189H274.88C275.984 231.189 276.88 232.085 276.88 233.189V235.345C276.88 236.449 275.984 237.345 274.88 237.345H272.724C271.62 237.345 270.724 236.449 270.724 235.345V233.189C270.724 232.085 271.62 231.189 272.724 231.189Z" fill="white" stroke="#04146C" stroke-width="1.02201" stroke-miterlimit="10"/>
<path d="M272.724 241.038H274.88C275.984 241.038 276.88 241.934 276.88 243.038V245.193C276.88 246.298 275.984 247.193 274.88 247.193H272.724C271.62 247.193 270.724 246.298 270.724 245.193V243.038C270.724 241.934 271.62 241.038 272.724 241.038Z" fill="white" stroke="#04146C" stroke-width="1.02201" stroke-miterlimit="10"/>
<path d="M261.644 231.189H263.8C264.904 231.189 265.8 232.085 265.8 233.189V235.345C265.8 236.449 264.904 237.345 263.8 237.345H261.644C260.54 237.345 259.644 236.449 259.644 235.345V233.189C259.644 232.085 260.54 231.189 261.644 231.189Z" fill="white" stroke="#04146C" stroke-width="1.02201" stroke-miterlimit="10"/>
<path d="M261.644 241.038H263.8C264.904 241.038 265.8 241.934 265.8 243.038V245.193C265.8 246.298 264.904 247.193 263.8 247.193H261.644C260.54 247.193 259.644 246.298 259.644 245.193V243.038C259.644 241.934 260.54 241.038 261.644 241.038Z" fill="white" stroke="#04146C" stroke-width="1.02201" stroke-miterlimit="10"/>
<path d="M250.565 231.189H252.721C253.825 231.189 254.721 232.085 254.721 233.189V235.345C254.721 236.449 253.825 237.345 252.721 237.345H250.565C249.461 237.345 248.565 236.449 248.565 235.345V233.189C248.565 232.085 249.461 231.189 250.565 231.189Z" fill="white" stroke="#04146C" stroke-width="1.02201" stroke-miterlimit="10"/>
<path d="M250.565 241.038H252.721C253.825 241.038 254.721 241.934 254.721 243.038V245.193C254.721 246.298 253.825 247.193 252.721 247.193H250.565C249.461 247.193 248.565 246.298 248.565 245.193V243.038C248.565 241.934 249.461 241.038 250.565 241.038Z" fill="white" stroke="#04146C" stroke-width="1.02201" stroke-miterlimit="10"/>
<path d="M239.485 231.189H241.641C242.745 231.189 243.641 232.085 243.641 233.189V235.345C243.641 236.449 242.745 237.345 241.641 237.345H239.485C238.381 237.345 237.485 236.449 237.485 235.345V233.189C237.485 232.085 238.381 231.189 239.485 231.189Z" fill="white" stroke="#04146C" stroke-width="1.02201" stroke-miterlimit="10"/>
<path d="M239.485 241.038H241.641C242.745 241.038 243.641 241.934 243.641 243.038V245.193C243.641 246.298 242.745 247.193 241.641 247.193H239.485C238.381 247.193 237.485 246.298 237.485 245.193V243.038C237.485 241.934 238.381 241.038 239.485 241.038Z" fill="white" stroke="#04146C" stroke-width="1.02201" stroke-miterlimit="10"/>
<path d="M228.405 231.189H230.561C231.665 231.189 232.561 232.085 232.561 233.189V235.345C232.561 236.449 231.665 237.345 230.561 237.345H228.405C227.301 237.345 226.405 236.449 226.405 235.345V233.189C226.405 232.085 227.301 231.189 228.405 231.189Z" fill="white" stroke="#04146C" stroke-width="1.02201" stroke-miterlimit="10"/>
<path d="M228.405 241.038H230.561C231.665 241.038 232.561 241.934 232.561 243.038V245.193C232.561 246.298 231.665 247.193 230.561 247.193H228.405C227.301 247.193 226.405 246.298 226.405 245.193V243.038C226.405 241.934 227.301 241.038 228.405 241.038Z" fill="white" stroke="#04146C" stroke-width="1.02201" stroke-miterlimit="10"/>
<path d="M146.384 229.959H211.632V248.426H146.384V229.959Z" fill="#04146C" stroke="#04146C" stroke-width="1.02201" stroke-miterlimit="10"/>
<path d="M125.001 243.606V234.399C125.001 231.947 126.988 229.959 129.44 229.959C131.891 229.959 133.879 231.947 133.879 234.399V243.606C133.879 246.058 131.891 248.045 129.44 248.045C126.988 248.045 125.001 246.058 125.001 243.606Z" fill="white" stroke="#04146C" stroke-width="1.02201" stroke-miterlimit="10"/>
<path d="M282.053 280.435H287.959V297.566H282.053V280.435Z" fill="white" stroke="#04146C" stroke-width="1.02201" stroke-miterlimit="10"/>
<path d="M132.216 270.586H283.306C284.516 270.586 285.497 271.567 285.497 272.777V305.331C285.497 306.541 284.516 307.522 283.306 307.522H132.216C131.006 307.522 130.026 306.541 130.026 305.331V272.777C130.026 271.567 131.006 270.586 132.216 270.586Z" fill="white" stroke="#04146C" stroke-width="1.02201" stroke-miterlimit="10"/>
<path d="M276.88 284.742C276.88 286.442 275.502 287.82 273.802 287.82C272.102 287.82 270.724 286.442 270.724 284.742C270.724 283.042 272.102 281.665 273.802 281.665C275.502 281.665 276.88 283.042 276.88 284.742Z" fill="white" stroke="#04146C" stroke-width="1.02201" stroke-miterlimit="10"/>
<path d="M276.88 294.591C276.88 296.291 275.502 297.669 273.802 297.669C272.102 297.669 270.724 296.291 270.724 294.591C270.724 292.891 272.102 291.513 273.802 291.513C275.502 291.513 276.88 292.891 276.88 294.591Z" fill="white" stroke="#04146C" stroke-width="1.02201" stroke-miterlimit="10"/>
<path d="M265.8 284.742C265.8 286.442 264.422 287.82 262.722 287.82C261.022 287.82 259.644 286.442 259.644 284.742C259.644 283.042 261.022 281.665 262.722 281.665C264.422 281.665 265.8 283.042 265.8 284.742Z" fill="white" stroke="#04146C" stroke-width="1.02201" stroke-miterlimit="10"/>
<path d="M265.8 294.591C265.8 296.291 264.422 297.669 262.722 297.669C261.022 297.669 259.644 296.291 259.644 294.591C259.644 292.891 261.022 291.513 262.722 291.513C264.422 291.513 265.8 292.891 265.8 294.591Z" fill="white" stroke="#04146C" stroke-width="1.02201" stroke-miterlimit="10"/>
<path d="M254.721 284.742C254.721 286.442 253.343 287.82 251.643 287.82C249.943 287.82 248.565 286.442 248.565 284.742C248.565 283.042 249.943 281.665 251.643 281.665C253.343 281.665 254.721 283.042 254.721 284.742Z" fill="white" stroke="#04146C" stroke-width="1.02201" stroke-miterlimit="10"/>
<path d="M254.721 294.591C254.721 296.291 253.343 297.669 251.643 297.669C249.943 297.669 248.565 296.291 248.565 294.591C248.565 292.891 249.943 291.513 251.643 291.513C253.343 291.513 254.721 292.891 254.721 294.591Z" fill="white" stroke="#04146C" stroke-width="1.02201" stroke-miterlimit="10"/>
<path d="M243.641 284.742C243.641 286.442 242.263 287.82 240.563 287.82C238.863 287.82 237.485 286.442 237.485 284.742C237.485 283.042 238.863 281.665 240.563 281.665C242.263 281.665 243.641 283.042 243.641 284.742Z" fill="white" stroke="#04146C" stroke-width="1.02201" stroke-miterlimit="10"/>
<path d="M243.641 294.591C243.641 296.291 242.263 297.669 240.563 297.669C238.863 297.669 237.485 296.291 237.485 294.591C237.485 292.891 238.863 291.513 240.563 291.513C242.263 291.513 243.641 292.891 243.641 294.591Z" fill="white" stroke="#04146C" stroke-width="1.02201" stroke-miterlimit="10"/>
<path d="M232.561 284.742C232.561 286.442 231.183 287.82 229.483 287.82C227.783 287.82 226.405 286.442 226.405 284.742C226.405 283.042 227.783 281.665 229.483 281.665C231.183 281.665 232.561 283.042 232.561 284.742Z" fill="white" stroke="#04146C" stroke-width="1.02201" stroke-miterlimit="10"/>
<path d="M232.561 294.591C232.561 296.291 231.183 297.669 229.483 297.669C227.783 297.669 226.405 296.291 226.405 294.591C226.405 292.891 227.783 291.513 229.483 291.513C231.183 291.513 232.561 292.891 232.561 294.591Z" fill="white" stroke="#04146C" stroke-width="1.02201" stroke-miterlimit="10"/>
<path d="M146.384 280.435H211.632V298.901H146.384V280.435Z" fill="#04146C" stroke="#04146C" stroke-width="1.02201" stroke-miterlimit="10"/>
<path d="M125.001 294.081V284.874C125.001 282.422 126.988 280.435 129.44 280.435C131.891 280.435 133.879 282.422 133.879 284.874V294.081C133.879 296.533 131.891 298.521 129.44 298.521C126.988 298.521 125.001 296.533 125.001 294.081Z" fill="white" stroke="#04146C" stroke-width="1.02201" stroke-miterlimit="10"/>
<rect x="152" y="235" width="9" height="9" fill="white"/>
<rect x="152" y="285" width="9" height="9" fill="white"/>
<rect x="152" y="184" width="9" height="9" fill="white"/>
<rect x="42" y="277" width="111.456" height="22.4413" fill="#3FFFF3"/>
<path d="M379.17 265.171C378.765 265.168 378.371 265.046 378.042 264.822C377.712 264.598 377.461 264.283 377.324 263.919L376.351 261.253C376.218 260.886 375.969 260.568 375.638 260.343C375.307 260.119 374.911 259.999 374.506 260H363.434C363.023 259.997 362.622 260.116 362.286 260.34C361.949 260.564 361.694 260.883 361.555 261.253L360.582 263.919C360.449 264.286 360.199 264.604 359.869 264.828C359.538 265.053 359.142 265.173 358.736 265.171H344.98C344.719 265.167 344.459 265.213 344.217 265.307C343.975 265.4 343.755 265.54 343.57 265.717C343.385 265.894 343.24 266.104 343.142 266.336C343.044 266.568 342.996 266.816 343 267.066V288.105C342.996 288.355 343.044 288.603 343.142 288.835C343.24 289.067 343.385 289.277 343.57 289.454C343.755 289.631 343.975 289.771 344.217 289.864C344.459 289.958 344.719 290.004 344.98 290H379.069C379.33 290.004 379.59 289.958 379.832 289.864C380.074 289.771 380.294 289.631 380.479 289.454C380.664 289.277 380.809 289.067 380.907 288.835C381.005 288.603 381.053 288.355 381.048 288.105V267.066C381.058 266.578 380.866 266.105 380.514 265.751C380.163 265.396 379.68 265.188 379.17 265.171Z" fill="white" stroke="#04146C" stroke-width="0.731707" stroke-linecap="round" stroke-linejoin="round"/>
<path d="M67.3185 226.457C66.8118 226.453 66.3185 226.301 65.9052 226.021C65.4918 225.741 65.1781 225.348 65.0063 224.893L63.7872 221.564C63.6208 221.106 63.3084 220.709 62.8939 220.429C62.4793 220.148 61.9833 219.998 61.4751 220H47.6022C47.0882 219.996 46.5857 220.144 46.164 220.424C45.7423 220.705 45.4222 221.103 45.248 221.564L44.0288 224.893C43.8623 225.351 43.55 225.748 43.1354 226.028C42.7209 226.309 42.2249 226.459 41.7167 226.457H24.4807C24.1534 226.451 23.8283 226.509 23.5248 226.626C23.2213 226.743 22.9456 226.917 22.7141 227.138C22.4827 227.359 22.3002 227.622 22.1775 227.911C22.0549 228.201 21.9947 228.511 22.0004 228.823V255.091C21.9947 255.403 22.0549 255.713 22.1775 256.003C22.3002 256.292 22.4827 256.555 22.7141 256.776C22.9456 256.997 23.2213 257.171 23.5248 257.288C23.8283 257.405 24.1534 257.462 24.4807 257.457H67.1924C67.5197 257.462 67.8447 257.405 68.1482 257.288C68.4517 257.171 68.7275 256.997 68.9589 256.776C69.1904 256.555 69.3729 256.292 69.4955 256.003C69.6181 255.713 69.6784 255.403 69.6727 255.091V228.823C69.6841 228.213 69.4437 227.623 69.0033 227.18C68.5629 226.738 67.9578 226.478 67.3185 226.457Z" fill="#04146C" stroke="#04146C" stroke-width="1.02476" stroke-linecap="round" stroke-linejoin="round"/>
</svg>
